<?xml version="1.0" encoding="utf-8"?>
<!-- Generator: Adobe Illustrator 24.1.1, SVG Export Plug-In . SVG Version: 6.00 Build 0)  -->
<svg version="1.1" id="Layer_1" xmlns="http://www.w3.org/2000/svg" xmlns:xlink="http://www.w3.org/1999/xlink" x="0px" y="0px"
	 viewBox="0 0 417.3 300.7" style="enable-background:new 0 0 417.3 300.7;" xml:space="preserve">
<style type="text/css">
	.st0{fill:#4D4B4D;}
	.st1{fill:url(#SVGID_1_);}
</style>
<g>
	<g>
		<path class="st0" d="M0,249.9h12.5l12.3,32.5h0.1l12.5-32.5H49l-20.4,49.6h-8.8L0,249.9z"/>
		<path class="st0" d="M78.3,248.7c15.5,0,26.7,10.2,26.7,26s-11.3,26-26.7,26s-26.7-10.2-26.7-26S62.8,248.7,78.3,248.7z
			 M78.3,290.7c9.3,0,15.4-6.7,15.4-16c0-9.2-6.1-16-15.4-16s-15.4,6.7-15.4,16C62.9,283.9,69,290.7,78.3,290.7z"/>
		<path class="st0" d="M122,259.6h-14.1v-9.7h39.2v9.7h-14.1v39.9H122V259.6z"/>
		<path class="st0" d="M153,249.9h33.7V260h-22.8v9.2h21.5v10.1h-21.5v10.1h24v10.1H153V249.9z"/>
		<path class="st0" d="M229.1,262.8c-2.2-2.6-5.3-4.1-9.4-4.1c-8.3,0-14.4,6.7-14.4,16c0,9.2,6.1,16,14,16c4.4,0,8-2,10.2-5.3
			l9.1,6.8c-4.1,5.9-11.1,8.6-17.9,8.6c-15.5,0-26.7-10.2-26.7-26s11.3-26,26.7-26c5.5,0,12.5,1.9,16.7,7.3L229.1,262.8z"/>
		<path class="st0" d="M244.6,249.9h10.9v18.5h21.2v-18.5h10.9v49.6h-10.9v-21.4h-21.2v21.4h-10.9V249.9z"/>
		<path class="st0" d="M314.1,249.9h9l21.6,49.6h-12.3l-4.3-10.5h-19.3l-4.1,10.5h-12L314.1,249.9z M318.3,264.3l-6,15.4h12.1
			L318.3,264.3z"/>
		<path class="st0" d="M349.5,249.9h10.9v49.6h-10.9V249.9z"/>
		<path class="st0" d="M370.4,249.9h14.8l21.1,34.4h0.1v-34.4h10.9v49.6h-14.3l-21.6-35.3h-0.1v35.3h-10.9V249.9z"/>
	</g>
	<g>
		<g>
			<g>
				<g>
					<linearGradient id="SVGID_1_" gradientUnits="userSpaceOnUse" x1="109.6481" y1="116.9614" x2="312.5856" y2="116.9614">
						<stop  offset="0" style="stop-color:#E12B26"/>
						<stop  offset="1" style="stop-color:#F8951D"/>
					</linearGradient>
					<path class="st1" d="M210.8,233.9L181,216.7v-32.4l-13.6-7.9l-27.9,16.1l-29.8-17.2v-34.4l28.8-16.6v-14.2l-28.8-16.6V59
						l29.8-17.2l29,16.8l12.5-7.2V17.2L210.8,0l29.8,17.2V51l12.5,7.2l29.6-17.1l29.8,17.2v34.4l-28.8,16.6V125l28.8,16.6V176
						l-29.8,17.2l-28.5-16.4l-13.7,7.9v32L210.8,233.9z M183,215.6l26.8,15.5V201L183,185.5V215.6z M211.8,201.4V231l26.8-15.5
						v-29.7L211.8,201.4z M183.4,183.2l27.4,15.8l27.4-15.8l-27.4-15.8L183.4,183.2z M283.8,160v30.3l26.8-15.5v-30.3L283.8,160z
						 M256.3,175.7l25.5,14.7v-29.4L256.3,175.7z M140.5,160.9v28.7l24.9-14.4L140.5,160.9z M111.6,174.2l26.8,15.5v-30.3
						l-26.8-15.5V174.2z M210.8,165.1l29.8,17.2v0.1l12.3-7.1v-32.1l-13.8-7.9l-28.4,16.4l-28.1-16.2l-13.4,7.8v32.1l11.9,6.9
						L210.8,165.1z M141.5,159.2l25.8,14.9v-29.8L141.5,159.2z M254.9,144.6v29.6l25.6-14.8L254.9,144.6z M283.8,127.3v30.5
						l26.4-15.2L283.8,127.3z M255.6,142.4l26.2,15.1v-30.2L255.6,142.4z M112.1,141.8l26.4,15.2v-30.5L112.1,141.8z M140.5,126.6
						v30.5l26.4-15.2L140.5,126.6z M184.7,134.2l25.1,14.5v-28.9L184.7,134.2z M211.8,119.4v29.3l25.4-14.7L211.8,119.4z
						 M240.6,133.7l13,7.5l28.2-16.3v-15.5l-28.8-16.6V60.4l-13.8-7.9l-28.4,16.4l-28.1-16.2l-13.4,7.8v33l-28.8,16.6v14.2
						l28.8,16.6l11.7-6.8V99.9l29.8-17.2l29.8,17.2V133.7z M183,102.3v30.7l26-15L183,102.3z M212.9,117.7l25.7,14.8v-29.7
						L212.9,117.7z M183.9,100.5l26.9,16.1l27.4-15.8L210.8,85L183.9,100.5z M140.5,77.5v30.3l26.8-15.5V62L140.5,77.5z M111.6,92.3
						l26.8,15.5V77.5L111.6,62V92.3z M283.8,76.8v30.3l26.8-15.5V61.3L283.8,76.8z M254.9,91.6l26.8,15.5V77.1l-26.8-15.5V91.6z
						 M112.1,59.9l27,15.6l27.4-15.8l-27-15.6L112.1,59.9z M255.4,59.2l27.4,15.8l27.4-15.8l-27.4-15.8L255.4,59.2z M184.7,51.5
						L209.8,66V37L184.7,51.5z M211.8,36.7V66l25.4-14.7L211.8,36.7z M183,20.2v30l26-15L183,20.2z M212.9,35l25.7,14.8V20.2
						L212.9,35z M183.4,18.1l27.4,15.8l27.4-15.8L210.8,2.3L183.4,18.1z"/>
				</g>
			</g>
		</g>
	</g>
</g>
</svg>
